<?xml version="1.0" standalone="no"?><!DOCTYPE svg PUBLIC "-//W3C//DTD SVG 1.1//EN" "http://www.w3.org/Graphics/SVG/1.1/DTD/svg11.dtd"><svg t="1642877233144" class="icon" viewBox="0 0 1024 1024" version="1.1" xmlns="http://www.w3.org/2000/svg" p-id="26112" xmlns:xlink="http://www.w3.org/1999/xlink" width="48" height="48"><defs><style type="text/css"></style></defs><path d="M512 991.99879344c265.09620187 0 479.99879344-214.90259156 479.99879344-479.99879344 0-265.09620187-214.90259156-479.99879344-479.99879344-479.99879344-265.09499531 0-479.99879344 214.901385-479.99879344 479.99879344C32.00120656 777.09620187 246.90500469 991.99879344 512 991.99879344zM290.22458 481.53802062L482.94251 481.53802062l0-192.71310468c0-16.19989407 13.07478469-29.27467875 29.2698525-29.27467875 16.19989407 0 29.27467875 13.07478469 29.27467875 29.27467875L541.48704125 481.53802062l192.71189719 0c16.19989407 0 29.27467875 13.07478469 29.27467875 29.27467876s-13.07478469 29.27467875-29.27467875 29.27467875l-192.81204563 0 0 192.71189718c0 16.19989407-13.07357812 29.27467875-29.26864593 29.27467875-16.19989407 0-29.27467875-13.07478469-29.27467875-29.27467875L482.84356813 540.08617156l-192.71310469 0c-16.10095313 0-29.17573687-13.07478469-29.17573688-29.27467875S274.02951125 481.53802062 290.22458 481.53802062z" p-id="26113"></path></svg>