<?xml version="1.0" standalone="no"?><!DOCTYPE svg PUBLIC "-//W3C//DTD SVG 1.1//EN" "http://www.w3.org/Graphics/SVG/1.1/DTD/svg11.dtd"><svg t="1642877598970" class="icon" viewBox="0 0 1024 1024" version="1.1" xmlns="http://www.w3.org/2000/svg" p-id="35087" xmlns:xlink="http://www.w3.org/1999/xlink" width="48" height="48"><defs><style type="text/css"></style></defs><path d="M772.469191 1024a101.859556 101.859556 0 0 1-45.511111-12.088889l-214.471111-111.388444-215.808 111.217777a94.549333 94.549333 0 0 1-102.855111-8.049777 106.126222 106.126222 0 0 1-38.542222-101.376L199.171413 664.519111l-169.102222-163.726222a110.933333 110.933333 0 0 1-26.311111-104.618667l0.341333-1.194666a99.157333 99.157333 0 0 1 79.815111-70.257778l235.036445-44.373334 105.500444-222.492444A99.384889 99.384889 0 0 1 512.344747 0a96.711111 96.711111 0 0 1 88.177777 58.510222l105.244445 221.866667 235.093333 42.666667a97.024 97.024 0 0 1 78.336 71.111111 105.671111 105.671111 0 0 1-24.490666 104.988444l-0.568889 0.597333-168.704 164.977778 42.666666 238.165334a104.192 104.192 0 0 1-38.087111 100.522666 88.177778 88.177778 0 0 1-57.543111 20.593778z" p-id="35088"></path><path d="M186.428302 595.882667L64.714524 489.244444a63.032889 63.032889 0 0 1-20.138666-65.763555 70.741333 70.741333 0 0 1 53.475555-48.668445L256.344747 344.177778s-77.710222 126.151111-69.916445 251.704889z" p-id="35089"></path><path d="M682.726969 947.2l85.333333 44.032a37.489778 37.489778 0 0 0 40.789334-3.185778 42.069333 42.069333 0 0 0 15.274666-40.192l-17.493333-94.264889A296.931556 296.931556 0 0 1 682.726969 947.2z" p-id="35090"></path></svg>